# xmcd
#
# Track frame offsets: 
#        182
#        11122
#        22987
#        33865
#        50087
#        65367
#        76610
#        88597
#        101867
#        114067
#
# Disc length: 1664 seconds
#
# Revision: 3
# Processed by: cddbd v1.5.2PL0 Copyright (c) Steve Scherf et al.
# Submitted via: ExactAudioCopy v0.99pb5
#
DISCID=6d067e0a
DTITLE=Willie Nelson - Classic Willie
DYEAR=1997
DGENRE=
TTITLE0=Night Life
TTITLE1=Once More With Feeling
TTITLE2=I'm So Lonesome I Could Cry
TTITLE3=Streets Of Laredo
TTITLE4=Everybody's Talkin'
TTITLE5=Crazy Arms
TTITLE6=Funny How Time Slips Away
TTITLE7=Help Me Make It Through The Night
TTITLE8=Born To Lose
TTITLE9=I'd Trade All My Tomorrows (For Just One Yesterday)
EXTD=
EXTT0=
EXTT1=
EXTT2=
EXTT3=
EXTT4=
EXTT5=
EXTT6=
EXTT7=
EXTT8=
EXTT9=
PLAYORDER=
